<?xml version="1.0" encoding="UTF-8"?>
<svg width="30px" height="40px" viewBox="0 0 30 40" version="1.1" xmlns="http://www.w3.org/2000/svg" xmlns:xlink="http://www.w3.org/1999/xlink">
    <!-- Generator: Sketch 53.2 (72643) - https://sketchapp.com -->
    <title>pin-mmobile</title>
    <desc>Created with Sketch.</desc>
    <g id="2" stroke="none" stroke-width="1" fill="none" fill-rule="evenodd">
        <g id="70-–-maps-–-elements" transform="translate(-240.000000, -157.000000)">
            <g id="pin-mmobile" transform="translate(240.000000, 157.000000)">
                <path d="M15,40 C15,40 27,36.4651668 27,32.7142857 C27,30.1106576 21.627417,28 15,28 C8.372583,28 3,30.1106576 3,32.7142857 C3,36.4719514 15,40 15,40 Z" id="shadow" fill="#3A352B" opacity="0.200000003"></path>
                <path d="M14.9997179,39.3567056 C15.0922217,39.2802935 15.1999026,39.1904032 15.3218045,39.0873892 C15.8289825,38.6587952 16.3947212,38.1599863 17.0043398,37.5964305 C18.7470378,35.9854108 20.4899529,34.1804876 22.1155904,32.2260112 C26.7354092,26.6716813 29.5,21.0434936 29.5,15.7142857 C29.5,7.30659878 23.0027921,0.5 15,0.5 C6.99720792,0.5 0.5,7.30659878 0.5,15.7142857 C0.5,21.053411 3.2645451,26.6835896 7.88431102,32.2343733 C9.50990166,34.187568 11.2527661,35.9905993 12.9954112,37.5993807 C13.6050088,38.1621513 14.1707264,38.6601871 14.6778833,39.0880532 C14.7996769,39.1908051 14.907273,39.2804731 14.9997179,39.3567056 Z" id="Mask" stroke-opacity="0.2" stroke="#FFFFFF" fill="#EC1D24"></path>
                <g id="m_mobile" transform="translate(5.000000, 6.000000)">
                    <rect id="Rectangle" x="0" y="0" width="20" height="20"></rect>
                    <path d="M12.9954483,13 L11.1383705,13 L11.1383705,9.16683726 C11.1383705,8.24377346 10.7469276,7.76850904 10.0505234,7.76850904 C9.35411925,7.76850904 8.92626309,8.24616172 8.92626309,9.16683726 L8.92626309,13 L7.06918525,13 L7.06918525,9.16683726 C7.06918525,8.24377346 6.67774238,7.76850904 5.98133819,7.76850904 C5.284934,7.76850904 4.85821575,8.24616172 4.85821575,9.16683726 L4.85821575,13 L3,13 L3,6.12777209 L4.85821575,6.12777209 L4.85821575,7.10218356 C5.284934,6.52541795 5.84706418,6 6.79267183,6 C7.64838416,6 8.29585799,6.39764585 8.63723259,7.08904811 C9.20619026,6.38451041 9.89576695,6 10.7878926,6 C12.1693218,6 13,6.87171614 13,8.52558854 L12.9954483,13 Z" id="Path" fill="#FFFFFF"></path>
                    <polygon id="Path" fill="#FFFFFF" points="19 13 14 13 14 12 19 12"></polygon>
                </g>
            </g>
        </g>
    </g>
</svg>