<?xml version="1.0" encoding="UTF-8"?>
<svg width="30px" height="40px" viewBox="0 0 30 40" version="1.1" xmlns="http://www.w3.org/2000/svg" xmlns:xlink="http://www.w3.org/1999/xlink">
    <!-- Generator: Sketch 53.2 (72643) - https://sketchapp.com -->
    <title>pin-24-hover</title>
    <desc>Created with Sketch.</desc>
    <g id="2" stroke="none" stroke-width="1" fill="none" fill-rule="evenodd">
        <g id="70-–-maps-–-elements" transform="translate(-194.000000, -217.000000)">
            <g id="pin-24-hover" transform="translate(194.000000, 217.000000)">
                <path d="M15,40 C15,40 27,36.4651668 27,32.7142857 C27,30.1106576 21.627417,28 15,28 C8.372583,28 3,30.1106576 3,32.7142857 C3,36.4719514 15,40 15,40 Z" id="shadow" fill="#3A352B" opacity="0.200000003"></path>
                <path d="M14.9997179,39.3567056 C15.0922217,39.2802935 15.1999026,39.1904032 15.3218045,39.0873892 C15.8289825,38.6587952 16.3947212,38.1599863 17.0043398,37.5964305 C18.7470378,35.9854108 20.4899529,34.1804876 22.1155904,32.2260112 C26.7354092,26.6716813 29.5,21.0434936 29.5,15.7142857 C29.5,7.30659878 23.0027921,0.5 15,0.5 C6.99720792,0.5 0.5,7.30659878 0.5,15.7142857 C0.5,21.053411 3.2645451,26.6835896 7.88431102,32.2343733 C9.50990166,34.187568 11.2527661,35.9905993 12.9954112,37.5993807 C13.6050088,38.1621513 14.1707264,38.6601871 14.6778833,39.0880532 C14.7996769,39.1908051 14.907273,39.2804731 14.9997179,39.3567056 Z" id="Mask" stroke-opacity="0.2" stroke="#FFFFFF" fill="#B11116"></path>
                <g id="24" transform="translate(5.000000, 6.000000)">
                    <rect id="Rectangle" x="0" y="0" width="20" height="20"></rect>
                    <path d="M8.44525547,12.4384858 C8.70803051,12.4384858 8.86617978,12.483438 8.91970803,12.5733438 C8.97323628,12.6632497 9,12.8312291 9,13.0772871 L9,13.3753943 C9,13.6025248 8.97323628,13.7634065 8.91970803,13.8580442 C8.86617978,13.9526819 8.70803051,14 8.44525547,14 L3.55474453,14 C3.32116672,14 3.17031664,13.9384864 3.10218978,13.8154574 C3.03406292,13.6924284 3,13.5173513 3,13.2902208 C3,12.7697135 3.09975569,12.3178253 3.29927007,11.9345426 C3.49878445,11.5512599 3.74695715,11.2129352 4.04379562,10.9195584 C4.34063409,10.6261815 4.66179876,10.358834 5.00729927,10.1175079 C5.35279978,9.87618176 5.67396445,9.63485925 5.97080292,9.39353312 C6.26764139,9.152207 6.51581409,8.89668905 6.71532847,8.62697161 C6.91484285,8.35725417 7.01459854,8.04258855 7.01459854,7.6829653 C7.01459854,7.38012467 6.91970898,7.12933853 6.72992701,6.93059937 C6.54014504,6.73186021 6.21168117,6.63249211 5.74452555,6.63249211 C5.38442642,6.63249211 5.05839562,6.67744435 4.76642336,6.76735016 C4.47445109,6.85725597 4.21654613,6.9684536 3.99270073,7.10094637 C3.88564423,7.16719276 3.80535307,7.20268136 3.75182482,7.20741325 C3.69829657,7.21214513 3.62773766,7.17665653 3.54014599,7.10094637 C3.46228672,7.02523621 3.37956248,6.90930677 3.2919708,6.75315457 C3.20437912,6.59700237 3.16058394,6.43375479 3.16058394,6.26340694 C3.16058394,6.08359532 3.23357591,5.91561592 3.37956204,5.75946372 C3.52554818,5.60331152 3.7226265,5.46845483 3.97080292,5.35488959 C4.21897934,5.24132435 4.4987819,5.1537858 4.81021898,5.09227129 C5.12165606,5.03075679 5.44768686,5 5.78832117,5 C6.21654715,5 6.62043606,5.04495223 7,5.13485804 C7.37956394,5.22476386 7.71046088,5.36908418 7.99270073,5.56782334 C8.27494058,5.76656251 8.49878263,6.02208046 8.66423358,6.33438486 C8.82968453,6.64668926 8.91240876,7.02050256 8.91240876,7.45583596 C8.91240876,7.89116937 8.84914905,8.27444629 8.72262774,8.60567823 C8.59610642,8.93691017 8.41605956,9.24447808 8.18248175,9.52839117 C7.94890394,9.81230426 7.66910139,10.0820176 7.34306569,10.3375394 C7.01703,10.5930612 6.65450321,10.8627746 6.25547445,11.1466877 C6.14841796,11.2223979 6.0316308,11.3075705 5.90510949,11.4022082 C5.77858818,11.4968459 5.65693489,11.6009458 5.54014599,11.714511 C5.42335708,11.8280763 5.32360139,11.9463716 5.24087591,12.0694006 C5.15815044,12.1924296 5.10218993,12.3154568 5.0729927,12.4384858 L8.44525547,12.4384858 Z M13.9871826,7 L12,11 L14.0703735,11 L13.9871826,7 Z M10.5246548,12.1597444 C10.3037464,12.1597444 10.1610786,12.1214061 10.0966469,12.0447284 C10.0322153,11.9680507 10,11.7955285 10,11.5271565 L10,11.0958466 C10,10.9329065 10.0138066,10.8035149 10.0414201,10.7076677 C10.0690337,10.6118206 10.1242599,10.5015981 10.2071006,10.3769968 L13.4378698,5.4313099 C13.5023014,5.33546278 13.5575277,5.25878623 13.6035503,5.20127796 C13.6495729,5.14376968 13.7024981,5.10063912 13.7623274,5.07188498 C13.8221568,5.04313085 13.8888885,5.02396171 13.9625247,5.014377 C14.0361608,5.00479228 14.1328068,5 14.2524655,5 L15.0946746,5 C15.315583,5 15.4720574,5.02635756 15.5641026,5.07907348 C15.6561477,5.1317894 15.7021696,5.28753864 15.7021696,5.54632588 L15.7021696,10.6645367 L16.4753452,10.6645367 C16.7238671,10.6645367 16.8734383,10.7100634 16.9240631,10.8011182 C16.974688,10.892173 17,11.0622991 17,11.3115016 L17,11.5271565 C17,11.7571896 16.974688,11.9201273 16.9240631,12.0159744 C16.8734383,12.1118216 16.7238671,12.1597444 16.4753452,12.1597444 L15.7021696,12.1597444 L15.7021696,13.4536741 C15.7021696,13.7124614 15.6561477,13.8682106 15.5641026,13.9209265 C15.4720574,13.9736424 15.315583,14 15.0946746,14 L14.65286,14 C14.4135425,14 14.2501648,13.9736424 14.1627219,13.9209265 C14.075279,13.8682106 14.0315582,13.7124614 14.0315582,13.4536741 L14.0315582,12.1597444 L10.5246548,12.1597444 Z" fill="#FFFFFF"></path>
                </g>
            </g>
        </g>
    </g>
</svg>