<?xml version="1.0" encoding="UTF-8"?>
<svg width="30px" height="40px" viewBox="0 0 30 40" version="1.1" xmlns="http://www.w3.org/2000/svg" xmlns:xlink="http://www.w3.org/1999/xlink">
    <!-- Generator: Sketch 53.2 (72643) - https://sketchapp.com -->
    <title>pin-m-hover</title>
    <desc>Created with Sketch.</desc>
    <g id="2" stroke="none" stroke-width="1" fill="none" fill-rule="evenodd">
        <g id="70-–-maps-–-elements" transform="translate(-200.000000, -97.000000)">
            <g id="pin-m-hover" transform="translate(200.000000, 97.000000)">
                <path d="M15,40 C15,40 27,36.4651668 27,32.7142857 C27,30.1106576 21.627417,28 15,28 C8.372583,28 3,30.1106576 3,32.7142857 C3,36.4719514 15,40 15,40 Z" id="shadow" fill="#3A352B" opacity="0.200000003"></path>
                <path d="M14.9997179,39.3567056 C15.0922217,39.2802935 15.1999026,39.1904032 15.3218045,39.0873892 C15.8289825,38.6587952 16.3947212,38.1599863 17.0043398,37.5964305 C18.7470378,35.9854108 20.4899529,34.1804876 22.1155904,32.2260112 C26.7354092,26.6716813 29.5,21.0434936 29.5,15.7142857 C29.5,7.30659878 23.0027921,0.5 15,0.5 C6.99720792,0.5 0.5,7.30659878 0.5,15.7142857 C0.5,21.053411 3.2645451,26.6835896 7.88431102,32.2343733 C9.50990166,34.187568 11.2527661,35.9905993 12.9954112,37.5993807 C13.6050088,38.1621513 14.1707264,38.6601871 14.6778833,39.0880532 C14.7996769,39.1908051 14.907273,39.2804731 14.9997179,39.3567056 Z" id="Mask" stroke-opacity="0.2" stroke="#FFFFFF" fill="#B11116"></path>
                <g id="mvideo" transform="translate(5.000000, 6.000000)">
                    <rect id="Rectangle" x="0" y="0" width="20" height="20"></rect>
                    <path d="M7.31500296,14.6030882 C6.40817273,13.6200911 7.11430038,11.6932007 7.26431935,10.0804913 C7.06745473,10.2840543 5.13780894,14.9996455 3.35981889,14.9999978 C3.32770422,14.9999978 3.295646,14.9997629 3.26364421,14.9966511 C1.65283105,14.8394138 1.86346717,12.5249494 2.36364328,11.1209111 L4.96273037,11.1209111 C4.16505615,13.4094237 5.26463085,12.4739853 6.01455637,11.0164581 C7.51502825,7.84376485 7.52970279,7.78575499 9.17962924,3 L12.0309491,3 C11.1814061,5.70579608 10.4645547,8.15477522 10.1160908,10.96385 C10.1160908,11.0679507 10.1640088,11.1721101 10.2650374,11.1209111 C10.8660163,11.0164581 14.0464974,3.51956405 14.3452372,3 L17.2,3 C17.2,3 14.1653048,11.7445759 14.6650294,12.5760897 C14.9153432,13.0463336 15.2651052,12.1602741 15.5640144,11.7963033 L16.0159338,12.2656665 C15.1801622,13.2316951 14.2141259,15.0022876 12.8809437,14.9999978 C12.7785042,14.9998804 12.6734683,14.988842 12.5665135,14.9665893 C12.3651336,14.9145683 12.1656163,14.8104089 12.0176856,14.6535239 C10.4645547,13.2494269 13.2656989,8.07187044 12.9633469,7.73866601 C12.8725341,7.7499979 12.7778269,8.00781299 12.6142057,8.36268304 C11.7644933,10.1838874 9.81610927,14.9998804 8.21618914,14.9998804 C7.96497228,14.9998804 7.5902635,14.9015924 7.31500296,14.6030882" id="Fill-6" fill="#FEFEFE"></path>
                </g>
            </g>
        </g>
    </g>
</svg>