<?xml version="1.0" encoding="UTF-8"?>
<svg width="30px" height="40px" viewBox="0 0 30 40" version="1.1" xmlns="http://www.w3.org/2000/svg" xmlns:xlink="http://www.w3.org/1999/xlink">
    <!-- Generator: Sketch 53.2 (72643) - https://sketchapp.com -->
    <title>pin-heart-hover</title>
    <desc>Created with Sketch.</desc>
    <g id="2" stroke="none" stroke-width="1" fill="none" fill-rule="evenodd">
        <g id="70-–-maps-–-elements" transform="translate(-194.000000, -337.000000)">
            <g id="pin-heart-hover" transform="translate(194.000000, 337.000000)">
                <path d="M15,40 C15,40 27,36.4651668 27,32.7142857 C27,30.1106576 21.627417,28 15,28 C8.372583,28 3,30.1106576 3,32.7142857 C3,36.4719514 15,40 15,40 Z" id="shadow" fill="#3A352B" opacity="0.200000003"></path>
                <path d="M14.9997179,39.3567056 C15.0922217,39.2802935 15.1999026,39.1904032 15.3218045,39.0873892 C15.8289825,38.6587952 16.3947212,38.1599863 17.0043398,37.5964305 C18.7470378,35.9854108 20.4899529,34.1804876 22.1155904,32.2260112 C26.7354092,26.6716813 29.5,21.0434936 29.5,15.7142857 C29.5,7.30659878 23.0027921,0.5 15,0.5 C6.99720792,0.5 0.5,7.30659878 0.5,15.7142857 C0.5,21.053411 3.2645451,26.6835896 7.88431102,32.2343733 C9.50990166,34.187568 11.2527661,35.9905993 12.9954112,37.5993807 C13.6050088,38.1621513 14.1707264,38.6601871 14.6778833,39.0880532 C14.7996769,39.1908051 14.907273,39.2804731 14.9997179,39.3567056 Z" id="Mask" stroke-opacity="0.2" stroke="#FFFFFF" fill="#B11116"></path>
                <g id="heart" transform="translate(5.000000, 6.000000)">
                    <rect id="Rectangle" x="0" y="0" width="20" height="20"></rect>
                    <path d="M10.6453727,5.11642025 C12.1325968,3.62846146 14.5409484,3.62554498 16.0362263,5.12156167 L15.8826592,4.96791865 C17.3727214,6.45871696 17.3697584,8.87874301 15.8898968,10.3593357 L10.0021412,16.25 L4.11438563,10.3593357 C2.6283207,8.87253659 2.62634532,6.46393533 4.12162329,4.96791865 L3.96805614,5.12156167 C5.45811832,3.63076335 7.87045702,3.62723218 9.35890975,5.11642025 L10.0021412,5.75996951 L10.6453727,5.11642025 Z" fill="#FFFFFF"></path>
                </g>
            </g>
        </g>
    </g>
</svg>