<?xml version="1.0" encoding="UTF-8"?>
<svg width="30px" height="40px" viewBox="0 0 30 40" version="1.1" xmlns="http://www.w3.org/2000/svg" xmlns:xlink="http://www.w3.org/1999/xlink">
    <!-- Generator: Sketch 53.2 (72643) - https://sketchapp.com -->
    <title>pin-pickpoint</title>
    <desc>Created with Sketch.</desc>
    <defs>
        <path d="M16,7.5 L16,14 L9.5,14 C5.91014913,14 3,11.0898509 3,7.5 C3,3.91014913 5.91014913,1 9.5,1 C13.0898509,1 16,3.91014913 16,7.5 Z M9.5,11.1111111 C11.4943616,11.1111111 13.1111111,9.4943616 13.1111111,7.5 C13.1111111,5.5056384 11.4943616,3.88888889 9.5,3.88888889 C7.5056384,3.88888889 5.88888889,5.5056384 5.88888889,7.5 C5.88888889,9.4943616 7.5056384,11.1111111 9.5,11.1111111 Z M9.5,8.94444444 C8.70225536,8.94444444 8.05555556,8.29774464 8.05555556,7.5 C8.05555556,6.70225536 8.70225536,6.05555556 9.5,6.05555556 C10.2977446,6.05555556 10.9444444,6.70225536 10.9444444,7.5 C10.9444444,8.29774464 10.2977446,8.94444444 9.5,8.94444444 Z" id="path-1"></path>
    </defs>
    <g id="2" stroke="none" stroke-width="1" fill="none" fill-rule="evenodd">
        <g id="70-–-maps-–-elements" transform="translate(-240.000000, -277.000000)">
            <g id="pin-pickpoint" transform="translate(240.000000, 277.000000)">
                <path d="M15,40 C15,40 27,36.4651668 27,32.7142857 C27,30.1106576 21.627417,28 15,28 C8.372583,28 3,30.1106576 3,32.7142857 C3,36.4719514 15,40 15,40 Z" id="shadow" fill="#3A352B" opacity="0.200000003"></path>
                <path d="M14.9997179,39.3567056 C15.0922217,39.2802935 15.1999026,39.1904032 15.3218045,39.0873892 C15.8289825,38.6587952 16.3947212,38.1599863 17.0043398,37.5964305 C18.7470378,35.9854108 20.4899529,34.1804876 22.1155904,32.2260112 C26.7354092,26.6716813 29.5,21.0434936 29.5,15.7142857 C29.5,7.30659878 23.0027921,0.5 15,0.5 C6.99720792,0.5 0.5,7.30659878 0.5,15.7142857 C0.5,21.053411 3.2645451,26.6835896 7.88431102,32.2343733 C9.50990166,34.187568 11.2527661,35.9905993 12.9954112,37.5993807 C13.6050088,38.1621513 14.1707264,38.6601871 14.6778833,39.0880532 C14.7996769,39.1908051 14.907273,39.2804731 14.9997179,39.3567056 Z" id="Mask" stroke-opacity="0.2" stroke="#FFFFFF" fill="#EC1D24"></path>
                <g id="pickpoint" transform="translate(5.000000, 6.000000)">
                    <rect id="Rectangle" x="0" y="0" width="20" height="20"></rect>
                    <mask id="mask-2" fill="white">
                        <use xlink:href="#path-1"></use>
                    </mask>
                    <use id="Mask" fill="#FFFFFF" fill-rule="nonzero" xlink:href="#path-1"></use>
                </g>
            </g>
        </g>
    </g>
</svg>